<?xml version="1.0" encoding="utf-8"?>
<!-- Generator: Adobe Illustrator 26.1.0, SVG Export Plug-In . SVG Version: 6.00 Build 0)  -->
<svg version="1.1" id="Layer_1" xmlns="http://www.w3.org/2000/svg" xmlns:xlink="http://www.w3.org/1999/xlink" x="0px" y="0px"
	 viewBox="0 0 622.1 743" style="enable-background:new 0 0 622.1 743;" xml:space="preserve">
<style type="text/css">
	.st0{fill:none;stroke:#000000;stroke-miterlimit:10;}
	.st1{opacity:0.57;fill:#27AAE1;stroke:#000000;stroke-width:0.7029;stroke-miterlimit:10;}
	.st2{fill:none;stroke:#000000;stroke-width:4;stroke-linejoin:round;stroke-miterlimit:10;stroke-dasharray:16,10;}
	.st3{fill:none;stroke:#000000;stroke-width:4;stroke-linecap:square;stroke-linejoin:round;stroke-miterlimit:10;}
	.st4{fill:none;stroke:#000000;stroke-width:4.397;stroke-linecap:square;stroke-linejoin:round;stroke-miterlimit:10;}
	.st5{fill:none;stroke:#ED1C24;stroke-width:4;stroke-linecap:square;stroke-linejoin:round;stroke-miterlimit:10;}
	.st6{fill:none;stroke:#000000;stroke-width:4.8997;stroke-linecap:square;stroke-linejoin:round;stroke-miterlimit:10;}
	.st7{fill:none;}
	.st8{font-family:'MyriadPro-Regular';}
	.st9{font-size:54px;}
	.st10{font-size:34px;}
	.st11{font-size:55px;}
</style>
<line class="st0" x1="0" y1="345.9" x2="622.1" y2="345.9"/>
<rect y="345.9" class="st1" width="622.1" height="397.2"/>
<line class="st2" x1="281.1" y1="743" x2="281.1" y2="0"/>
<line class="st3" x1="281" y1="310" x2="310.1" y2="310"/>
<path class="st4" d="M236.6,305.7c5.8-15.6,24.3-23.1,41.4-16.7"/>
<line class="st3" x1="310.1" y1="311.6" x2="310.1" y2="344.2"/>
<line class="st5" x1="280.7" y1="344.6" x2="5.8" y2="132.5"/>
<path class="st6" d="M305.3,418.2c-4.2,7.8-13.8,10.7-21.6,6.5"/>
<line class="st5" x1="282.3" y1="346.9" x2="409.5" y2="705.3"/>
<rect x="285.7" y="464.4" class="st7" width="66.2" height="64.8"/>
<text transform="matrix(1 0 0 1 285.7181 502.7395)"><tspan x="0" y="0" class="st8 st9">θ</tspan><tspan x="28.8" y="0" class="st8 st10">2</tspan></text>
<rect x="223.4" y="224.9" class="st7" width="43.6" height="42.7"/>
<text transform="matrix(1 0 0 1 223.3623 263.279)"><tspan x="0" y="0" class="st8 st9">θ</tspan><tspan x="28.8" y="0" class="st8 st10">1</tspan></text>
<rect x="475.2" y="60.5" class="st7" width="77.8" height="89.3"/>
<rect x="531.1" y="138.8" class="st7" width="79.4" height="77.2"/>
<rect x="531.1" y="262.4" class="st7" width="151.2" height="131"/>
<text transform="matrix(1 0 0 1 531.147 301.4495)" class="st8 st11">n</text>
<text transform="matrix(0.583 0 0 0.583 561.6714 312.7649)" class="st8 st11">1</text>
<rect x="535" y="381.8" class="st7" width="151.2" height="131"/>
<text transform="matrix(1 0 0 1 534.96 420.8495)" class="st8 st11">n</text>
<text transform="matrix(0.583 0 0 0.583 565.4844 432.1649)" class="st8 st11">2</text>
</svg>
