<?xml version="1.0" encoding="utf-8"?>
<!-- Generator: Adobe Illustrator 26.1.0, SVG Export Plug-In . SVG Version: 6.00 Build 0)  -->
<svg version="1.1" id="Layer_1" xmlns="http://www.w3.org/2000/svg" xmlns:xlink="http://www.w3.org/1999/xlink" x="0px" y="0px"
	 viewBox="0 0 394.2 477.3" style="enable-background:new 0 0 394.2 477.3;" xml:space="preserve">
<style type="text/css">
	.st0{fill:none;stroke:#000000;stroke-width:6.5623;stroke-miterlimit:10;}
	.st1{fill:none;stroke:#FF0000;stroke-width:8.3183;stroke-miterlimit:10;}
	.st2{fill:#FF0000;}
	.st3{fill:none;stroke:#000000;stroke-width:8.1005;stroke-linecap:square;stroke-miterlimit:10;}
	.st4{fill:none;}
	.st5{font-family:'CambriaMath';}
	.st6{font-size:60.3078px;}
	.st7{font-size:49.9099px;}
	.st8{fill:none;stroke:#666666;stroke-width:3.1194;stroke-miterlimit:10;}
	.st9{fill:none;stroke:#666666;stroke-width:3.1194;stroke-miterlimit:10;stroke-dasharray:9.0814,9.0814;}
	.st10{fill:none;stroke:#666666;stroke-width:3.1194;stroke-miterlimit:10;stroke-dasharray:9.3247,9.3247;}
	.st11{fill:none;stroke:#000000;stroke-width:1.0398;stroke-miterlimit:10;}
	.st12{font-family:'MyriadPro-Regular';}
	.st13{font-size:51.9894px;}
	.st14{fill:none;stroke:#FF0000;stroke-width:1.0398;stroke-miterlimit:10;}
</style>
<path class="st0" d="M118.6,356.6c-7.1-14.4-23-21-35.5-14.9"/>
<g>
	<g>
		<line class="st1" x1="83.9" y1="403.8" x2="350.4" y2="42.5"/>
		<g>
			<path class="st2" d="M372.7,12.2c-5.2,18.2-9.2,42.5-7.8,60.5l-17.5-26.2l-30.2-9C334.8,33.6,356.9,22.5,372.7,12.2z"/>
		</g>
	</g>
</g>
<g>
	<g>
		<line class="st3" x1="83.9" y1="403.8" x2="338.1" y2="403.8"/>
		<g>
			<path d="M374.8,403.8c-17.3,6.4-38.7,17.3-51.9,28.9l10.5-28.9L322.9,375C336.1,386.5,357.5,397.4,374.8,403.8z"/>
		</g>
	</g>
</g>
<g>
	<g>
		<line class="st3" x1="83.9" y1="403.5" x2="83.9" y2="46.8"/>
		<g>
			<path d="M83.9,10.1c6.4,17.3,17.3,38.7,28.9,51.9L83.9,51.6L55,62C66.6,48.8,77.5,27.3,83.9,10.1z"/>
		</g>
	</g>
</g>
<rect x="13.7" y="157.2" class="st4" width="62.4" height="114.9"/>
<text transform="matrix(0 -1 1 0 55.8355 272.0865)" class="st5 st6">B</text>
<text transform="matrix(0 -0.583 0.583 0 64.1373 235.2184)" class="st5 st7">Loc </text>
<text transform="matrix(0 -1 1 0 55.8355 184.9244)" class="st5 st6"> </text>
<g>
	<g>
		<line class="st8" x1="83.9" y1="12.2" x2="88.6" y2="12.2"/>
		<line class="st9" x1="97.7" y1="12.2" x2="365.6" y2="12.2"/>
		<line class="st8" x1="370.1" y1="12.2" x2="374.8" y2="12.2"/>
	</g>
</g>
<g>
	<g>
		<line class="st8" x1="373.8" y1="12.2" x2="373.8" y2="16.8"/>
		<line class="st10" x1="373.8" y1="26.2" x2="373.8" y2="394.5"/>
		<line class="st8" x1="373.8" y1="399.2" x2="373.8" y2="403.8"/>
	</g>
</g>
<g>
	<rect x="177.9" y="420.9" class="st4" width="157" height="64.5"/>
	<text transform="matrix(1 0 0 1 177.8941 463.0592)" class="st5 st6">B</text>
	<text transform="matrix(0.583 0 0 0.583 214.7618 471.361)" class="st5 st7">Sol </text>
	<text transform="matrix(1 0 0 1 258.9478 463.0592)" class="st5 st6"> </text>
	<g>
		<g>
			<line class="st11" x1="182" y1="417.5" x2="209.1" y2="417.5"/>
			<g>
				<polygon points="205.6,421.8 204.9,421 208.7,417.5 204.9,414 205.6,413.3 210.2,417.5 				"/>
			</g>
		</g>
	</g>
</g>
<g>
	<g>
		<line class="st11" x1="10.6" y1="267.7" x2="10.6" y2="241.2"/>
		<g>
			<polygon points="14.8,244.7 14.1,245.4 10.6,241.6 7.1,245.4 6.3,244.7 10.6,240.1 			"/>
		</g>
	</g>
</g>
<rect x="91.8" y="285.1" class="st4" width="66.4" height="53.1"/>
<text transform="matrix(1 0 0 1 91.7501 322.0446)" class="st12 st13">φ</text>
<g>
	
		<rect x="155.2" y="121.6" transform="matrix(0.5935 -0.8049 0.8049 0.5935 -28.8014 250.6611)" class="st4" width="157" height="64.5"/>
	<text transform="matrix(0.5935 -0.8049 0.8049 0.5935 195.1125 222.9044)" class="st2 st5 st6">B</text>
	<text transform="matrix(0.346 -0.4692 0.4692 0.346 223.674 198.1578)" class="st2 st5 st7">Tot</text>
	<text transform="matrix(0.5935 -0.8049 0.8049 0.5935 242.2372 158.994)" class="st2 st5 st6"> </text>
	<g>
		<g>
			<line class="st14" x1="160.9" y1="192.6" x2="177" y2="170.8"/>
			<g>
				<polygon class="st2" points="178.3,176.1 177.3,176.2 176.7,171.1 171.7,172.1 171.5,171 177.6,169.9 				"/>
			</g>
		</g>
	</g>
</g>
</svg>
